<svg width="471" height="176" viewBox="0 0 471 176" fill="none" xmlns="http://www.w3.org/2000/svg">
<rect width="470" height="175" transform="translate(0.5 0.5)" fill="#024959"/>
<g clip-path="url(#clip0_184_32696)">
<rect x="28.5" y="28.5" width="119" height="119" rx="20" fill="#024959"/>
<circle cx="87.5" cy="223.5" r="118" fill="#FCFCFC"/>
<path d="M129.513 42.5133L130.636 45.9682H134.268L131.33 48.1035L132.452 51.5584L129.513 49.4231L126.574 51.5584L127.697 48.1035L124.758 45.9682H128.391L129.513 42.5133Z" fill="#FCFCFC"/>
<path d="M50.9766 53.918H75.3418L88.0371 75.9395L100.342 53.918H124.463L102.197 88.5859L126.562 125.5H101.709L87.5977 102.502L73.4375 125.5H48.7305L73.4375 88.1953L50.9766 53.918Z" fill="#DAA520"/>
<path d="M83.7168 109.207V93.541L70.082 71.9844H78.8926L87.6523 86.7109L96.2344 71.9844H104.893L91.207 93.5918V109.207H83.7168Z" fill="#FCFCFC"/>
</g>
<rect x="29.5" y="29.5" width="117" height="117" rx="19" stroke="#DAA520" stroke-width="2"/>
<path d="M187.926 103.5H175.714V44.9629H209.267V55.1328H187.926V70.2275H207.785V80.3574H187.926V103.5ZM231.969 58.7363V103.5H219.757V58.7363H231.969ZM225.883 41.1992C227.698 41.1992 229.259 41.6263 230.567 42.4805C231.875 43.3079 232.529 44.8695 232.529 47.165C232.529 49.4339 231.875 51.0088 230.567 51.8896C229.259 52.7438 227.698 53.1709 225.883 53.1709C224.041 53.1709 222.466 52.7438 221.158 51.8896C219.877 51.0088 219.236 49.4339 219.236 47.165C219.236 44.8695 219.877 43.3079 221.158 42.4805C222.466 41.6263 224.041 41.1992 225.883 41.1992ZM253.99 80.6377L239.576 58.7363H253.43L262.118 72.9902L270.887 58.7363H284.74L270.166 80.6377L285.421 103.5H271.527L262.118 88.165L252.669 103.5H238.815L253.99 80.6377ZM311.406 69.0664L323.618 44.9629H336.991L317.572 80.7178V103.5H305.24V81.1182L285.821 44.9629H299.274L311.406 69.0664ZM384.077 81.0381C384.077 84.7751 383.57 88.085 382.556 90.9678C381.568 93.8506 380.113 96.293 378.191 98.2949C376.296 100.27 374.001 101.765 371.305 102.779C368.635 103.794 365.619 104.301 362.256 104.301C359.106 104.301 356.21 103.794 353.567 102.779C350.951 101.765 348.669 100.27 346.721 98.2949C344.799 96.293 343.304 93.8506 342.236 90.9678C341.195 88.085 340.675 84.7751 340.675 81.0381C340.675 76.0732 341.556 71.8691 343.317 68.4258C345.079 64.9824 347.588 62.3665 350.845 60.5781C354.101 58.7897 357.985 57.8955 362.496 57.8955C366.687 57.8955 370.397 58.7897 373.627 60.5781C376.883 62.3665 379.433 64.9824 381.274 68.4258C383.143 71.8691 384.077 76.0732 384.077 81.0381ZM353.127 81.0381C353.127 83.9743 353.447 86.4434 354.088 88.4453C354.729 90.4473 355.729 91.9554 357.091 92.9697C358.452 93.984 360.227 94.4912 362.416 94.4912C364.578 94.4912 366.326 93.984 367.661 92.9697C369.022 91.9554 370.01 90.4473 370.624 88.4453C371.265 86.4434 371.585 83.9743 371.585 81.0381C371.585 78.0752 371.265 75.6195 370.624 73.6709C370.01 71.6956 369.022 70.2142 367.661 69.2266C366.3 68.2389 364.525 67.7451 362.336 67.7451C359.106 67.7451 356.757 68.8529 355.289 71.0684C353.848 73.2839 353.127 76.6071 353.127 81.0381ZM435.247 58.7363V103.5H425.878L424.236 97.7744H423.596C422.635 99.2959 421.434 100.537 419.992 101.498C418.551 102.459 416.963 103.166 415.228 103.62C413.493 104.074 411.691 104.301 409.822 104.301C406.619 104.301 403.83 103.74 401.454 102.619C399.078 101.471 397.223 99.6963 395.889 97.2939C394.581 94.8916 393.927 91.7686 393.927 87.9248V58.7363H406.139V84.8818C406.139 88.085 406.713 90.5007 407.86 92.1289C409.008 93.7572 410.837 94.5713 413.346 94.5713C415.828 94.5713 417.777 94.0107 419.191 92.8896C420.606 91.7419 421.594 90.0736 422.154 87.8848C422.742 85.6693 423.035 82.9733 423.035 79.7969V58.7363H435.247Z" fill="#FCFCFC"/>
<path d="M175.771 131.5V118.257H185.346V119.82H177.523V123.876H184.849V125.43H177.523V129.937H185.653V131.5H175.771ZM186.782 131.5L190.287 126.514L187.044 121.907H189.077L190.549 124.156C190.826 124.584 191.049 124.942 191.218 125.231C191.483 124.833 191.727 124.481 191.949 124.174L193.566 121.907H195.509L192.193 126.423L195.761 131.5H193.765L191.796 128.519L191.272 127.715L188.752 131.5H186.782ZM203.376 127.986L204.975 128.194C204.801 129.296 204.352 130.16 203.629 130.786C202.913 131.407 202.031 131.717 200.983 131.717C199.67 131.717 198.613 131.289 197.812 130.434C197.017 129.573 196.62 128.341 196.62 126.74C196.62 125.704 196.791 124.797 197.135 124.021C197.478 123.244 197.999 122.663 198.697 122.277C199.402 121.886 200.167 121.69 200.992 121.69C202.034 121.69 202.886 121.955 203.548 122.485C204.211 123.009 204.635 123.756 204.822 124.725L203.241 124.969C203.09 124.325 202.822 123.84 202.437 123.515C202.058 123.189 201.597 123.027 201.055 123.027C200.236 123.027 199.57 123.322 199.059 123.912C198.547 124.496 198.291 125.424 198.291 126.694C198.291 127.983 198.538 128.92 199.031 129.504C199.525 130.088 200.17 130.38 200.965 130.38C201.603 130.38 202.136 130.184 202.563 129.793C202.991 129.401 203.262 128.799 203.376 127.986ZM212.934 128.411L214.614 128.618C214.349 129.6 213.858 130.362 213.141 130.904C212.425 131.446 211.509 131.717 210.395 131.717C208.992 131.717 207.878 131.286 207.053 130.425C206.234 129.558 205.824 128.344 205.824 126.785C205.824 125.171 206.24 123.918 207.071 123.027C207.902 122.136 208.98 121.69 210.305 121.69C211.588 121.69 212.635 122.127 213.448 123C214.261 123.873 214.668 125.101 214.668 126.685C214.668 126.782 214.665 126.926 214.659 127.119H207.505C207.565 128.173 207.863 128.98 208.399 129.54C208.935 130.1 209.603 130.38 210.404 130.38C211 130.38 211.509 130.223 211.931 129.91C212.352 129.597 212.687 129.097 212.934 128.411ZM207.595 125.782H212.952C212.879 124.975 212.675 124.37 212.337 123.966C211.819 123.34 211.148 123.027 210.323 123.027C209.576 123.027 208.947 123.277 208.435 123.777C207.929 124.276 207.649 124.945 207.595 125.782ZM216.628 131.5V118.257H218.254V131.5H216.628ZM227.351 128.411L229.031 128.618C228.766 129.6 228.275 130.362 227.558 130.904C226.842 131.446 225.926 131.717 224.812 131.717C223.409 131.717 222.295 131.286 221.47 130.425C220.651 129.558 220.241 128.344 220.241 126.785C220.241 125.171 220.657 123.918 221.488 123.027C222.319 122.136 223.397 121.69 224.722 121.69C226.005 121.69 227.052 122.127 227.865 123C228.678 123.873 229.085 125.101 229.085 126.685C229.085 126.782 229.082 126.926 229.076 127.119H221.922C221.982 128.173 222.28 128.98 222.816 129.54C223.352 130.1 224.02 130.38 224.821 130.38C225.417 130.38 225.926 130.223 226.348 129.91C226.769 129.597 227.104 129.097 227.351 128.411ZM222.012 125.782H227.369C227.296 124.975 227.092 124.37 226.754 123.966C226.236 123.34 225.565 123.027 224.74 123.027C223.993 123.027 223.364 123.277 222.852 123.777C222.346 124.276 222.066 124.945 222.012 125.782ZM224.686 119.179L223.665 120.714H221.804L223.755 118.185H225.49L227.522 120.714H225.679L224.686 119.179ZM231.081 131.5V121.907H232.545V123.271C233.249 122.217 234.267 121.69 235.598 121.69C236.176 121.69 236.706 121.795 237.188 122.006C237.676 122.211 238.04 122.482 238.281 122.819C238.522 123.156 238.69 123.557 238.787 124.021C238.847 124.322 238.877 124.849 238.877 125.601V131.5H237.251V125.665C237.251 125.002 237.188 124.508 237.061 124.183C236.935 123.852 236.709 123.59 236.384 123.397C236.065 123.198 235.688 123.099 235.255 123.099C234.562 123.099 233.963 123.319 233.457 123.759C232.957 124.198 232.707 125.032 232.707 126.261V131.5H231.081ZM247.639 127.986L249.238 128.194C249.063 129.296 248.615 130.16 247.892 130.786C247.175 131.407 246.293 131.717 245.245 131.717C243.933 131.717 242.876 131.289 242.075 130.434C241.28 129.573 240.882 128.341 240.882 126.74C240.882 125.704 241.054 124.797 241.397 124.021C241.74 123.244 242.261 122.663 242.96 122.277C243.665 121.886 244.429 121.69 245.254 121.69C246.296 121.69 247.148 121.955 247.811 122.485C248.473 123.009 248.898 123.756 249.084 124.725L247.504 124.969C247.353 124.325 247.085 123.84 246.7 123.515C246.32 123.189 245.86 123.027 245.318 123.027C244.499 123.027 243.833 123.322 243.321 123.912C242.809 124.496 242.553 125.424 242.553 126.694C242.553 127.983 242.8 128.92 243.294 129.504C243.788 130.088 244.432 130.38 245.227 130.38C245.866 130.38 246.399 130.184 246.826 129.793C247.254 129.401 247.525 128.799 247.639 127.986ZM250.638 120.127V118.257H252.264V120.127H250.638ZM250.638 131.5V121.907H252.264V131.5H250.638ZM261.008 130.317C260.406 130.829 259.825 131.19 259.265 131.401C258.711 131.611 258.115 131.717 257.476 131.717C256.422 131.717 255.612 131.461 255.046 130.949C254.48 130.431 254.197 129.772 254.197 128.971C254.197 128.501 254.303 128.073 254.513 127.688C254.73 127.297 255.01 126.983 255.354 126.749C255.703 126.514 256.094 126.336 256.528 126.216C256.847 126.131 257.329 126.05 257.973 125.972C259.286 125.815 260.253 125.628 260.873 125.412C260.879 125.189 260.882 125.047 260.882 124.987C260.882 124.325 260.728 123.858 260.421 123.587C260.006 123.22 259.388 123.036 258.569 123.036C257.805 123.036 257.238 123.171 256.871 123.442C256.51 123.707 256.242 124.18 256.067 124.861L254.477 124.644C254.622 123.963 254.86 123.415 255.191 123C255.522 122.578 256.001 122.256 256.627 122.033C257.253 121.804 257.979 121.69 258.804 121.69C259.623 121.69 260.289 121.786 260.801 121.979C261.312 122.172 261.689 122.416 261.93 122.711C262.171 123 262.339 123.367 262.436 123.813C262.49 124.09 262.517 124.59 262.517 125.312V127.48C262.517 128.992 262.55 129.949 262.616 130.353C262.688 130.75 262.827 131.133 263.032 131.5H261.333C261.165 131.163 261.056 130.768 261.008 130.317ZM260.873 126.685C260.283 126.926 259.397 127.131 258.217 127.3C257.549 127.396 257.076 127.504 256.799 127.625C256.522 127.745 256.308 127.923 256.157 128.158C256.007 128.387 255.932 128.642 255.932 128.926C255.932 129.359 256.094 129.72 256.419 130.01C256.751 130.299 257.232 130.443 257.865 130.443C258.491 130.443 259.048 130.308 259.536 130.037C260.024 129.76 260.382 129.383 260.611 128.907C260.785 128.54 260.873 127.998 260.873 127.281V126.685ZM276.6 126.306V124.752L282.209 124.743V129.657C281.348 130.344 280.46 130.862 279.544 131.211C278.629 131.554 277.69 131.726 276.726 131.726C275.425 131.726 274.242 131.449 273.176 130.895C272.116 130.335 271.315 129.528 270.773 128.474C270.231 127.42 269.96 126.243 269.96 124.942C269.96 123.653 270.228 122.452 270.764 121.338C271.306 120.218 272.083 119.386 273.095 118.844C274.106 118.302 275.272 118.031 276.591 118.031C277.548 118.031 278.412 118.188 279.183 118.501C279.96 118.808 280.568 119.239 281.008 119.793C281.447 120.347 281.782 121.07 282.01 121.961L280.43 122.395C280.231 121.72 279.984 121.19 279.689 120.805C279.394 120.419 278.972 120.112 278.424 119.883C277.876 119.648 277.268 119.531 276.6 119.531C275.799 119.531 275.106 119.654 274.522 119.901C273.938 120.142 273.465 120.461 273.104 120.859C272.748 121.256 272.471 121.693 272.273 122.169C271.935 122.988 271.767 123.876 271.767 124.833C271.767 126.014 271.969 127.001 272.372 127.796C272.782 128.591 273.375 129.181 274.152 129.567C274.928 129.952 275.753 130.145 276.627 130.145C277.385 130.145 278.126 130 278.849 129.711C279.572 129.416 280.12 129.103 280.493 128.772V126.306H276.6ZM291.161 128.411L292.841 128.618C292.576 129.6 292.086 130.362 291.369 130.904C290.652 131.446 289.737 131.717 288.623 131.717C287.22 131.717 286.106 131.286 285.281 130.425C284.462 129.558 284.052 128.344 284.052 126.785C284.052 125.171 284.468 123.918 285.299 123.027C286.13 122.136 287.208 121.69 288.532 121.69C289.815 121.69 290.863 122.127 291.676 123C292.489 123.873 292.896 125.101 292.896 126.685C292.896 126.782 292.892 126.926 292.886 127.119H285.732C285.792 128.173 286.09 128.98 286.626 129.54C287.162 130.1 287.831 130.38 288.632 130.38C289.228 130.38 289.737 130.223 290.158 129.91C290.58 129.597 290.914 129.097 291.161 128.411ZM285.823 125.782H291.179C291.107 124.975 290.902 124.37 290.565 123.966C290.047 123.34 289.376 123.027 288.551 123.027C287.804 123.027 287.174 123.277 286.663 123.777C286.157 124.276 285.877 124.945 285.823 125.782ZM294.874 131.5V121.907H296.337V123.361C296.711 122.681 297.054 122.232 297.367 122.015C297.686 121.798 298.035 121.69 298.415 121.69C298.963 121.69 299.52 121.865 300.086 122.214L299.526 123.722C299.128 123.488 298.731 123.37 298.333 123.37C297.978 123.37 297.659 123.479 297.376 123.695C297.093 123.906 296.891 124.201 296.771 124.581C296.59 125.159 296.5 125.791 296.5 126.478V131.5H294.874ZM307.312 130.317C306.71 130.829 306.129 131.19 305.569 131.401C305.015 131.611 304.419 131.717 303.781 131.717C302.727 131.717 301.917 131.461 301.351 130.949C300.785 130.431 300.501 129.772 300.501 128.971C300.501 128.501 300.607 128.073 300.818 127.688C301.034 127.297 301.314 126.983 301.658 126.749C302.007 126.514 302.398 126.336 302.832 126.216C303.151 126.131 303.633 126.05 304.277 125.972C305.59 125.815 306.557 125.628 307.177 125.412C307.183 125.189 307.186 125.047 307.186 124.987C307.186 124.325 307.032 123.858 306.725 123.587C306.31 123.22 305.693 123.036 304.874 123.036C304.109 123.036 303.543 123.171 303.175 123.442C302.814 123.707 302.546 124.18 302.371 124.861L300.781 124.644C300.926 123.963 301.164 123.415 301.495 123C301.826 122.578 302.305 122.256 302.931 122.033C303.558 121.804 304.283 121.69 305.108 121.69C305.927 121.69 306.593 121.786 307.105 121.979C307.617 122.172 307.993 122.416 308.234 122.711C308.475 123 308.643 123.367 308.74 123.813C308.794 124.09 308.821 124.59 308.821 125.312V127.48C308.821 128.992 308.854 129.949 308.92 130.353C308.993 130.75 309.131 131.133 309.336 131.5H307.638C307.469 131.163 307.361 130.768 307.312 130.317ZM307.177 126.685C306.587 126.926 305.702 127.131 304.521 127.3C303.853 127.396 303.38 127.504 303.103 127.625C302.826 127.745 302.612 127.923 302.462 128.158C302.311 128.387 302.236 128.642 302.236 128.926C302.236 129.359 302.398 129.72 302.724 130.01C303.055 130.299 303.537 130.443 304.169 130.443C304.795 130.443 305.352 130.308 305.84 130.037C306.328 129.76 306.686 129.383 306.915 128.907C307.09 128.54 307.177 127.998 307.177 127.281V126.685ZM311.35 131.5V121.907H312.814V123.271C313.518 122.217 314.536 121.69 315.867 121.69C316.445 121.69 316.975 121.795 317.457 122.006C317.945 122.211 318.309 122.482 318.55 122.819C318.791 123.156 318.959 123.557 319.056 124.021C319.116 124.322 319.146 124.849 319.146 125.601V131.5H317.52V125.665C317.52 125.002 317.457 124.508 317.33 124.183C317.204 123.852 316.978 123.59 316.653 123.397C316.334 123.198 315.957 123.099 315.524 123.099C314.831 123.099 314.232 123.319 313.726 123.759C313.226 124.198 312.976 125.032 312.976 126.261V131.5H311.35ZM327.872 131.5V130.29C327.264 131.241 326.37 131.717 325.189 131.717C324.424 131.717 323.72 131.506 323.075 131.084C322.437 130.663 321.94 130.076 321.585 129.323C321.236 128.564 321.061 127.694 321.061 126.712C321.061 125.755 321.221 124.888 321.54 124.111C321.859 123.328 322.338 122.729 322.976 122.313C323.614 121.898 324.328 121.69 325.117 121.69C325.695 121.69 326.21 121.813 326.662 122.06C327.113 122.301 327.481 122.617 327.764 123.009V118.257H329.381V131.5H327.872ZM322.732 126.712C322.732 127.941 322.991 128.859 323.509 129.468C324.027 130.076 324.638 130.38 325.343 130.38C326.053 130.38 326.656 130.091 327.149 129.513C327.649 128.929 327.899 128.04 327.899 126.848C327.899 125.535 327.646 124.572 327.14 123.957C326.635 123.343 326.011 123.036 325.271 123.036C324.548 123.036 323.943 123.331 323.455 123.921C322.973 124.511 322.732 125.442 322.732 126.712ZM331.341 126.703C331.341 124.927 331.835 123.611 332.822 122.756C333.647 122.045 334.653 121.69 335.839 121.69C337.158 121.69 338.236 122.124 339.073 122.991C339.91 123.852 340.329 125.044 340.329 126.568C340.329 127.802 340.142 128.775 339.769 129.486C339.401 130.19 338.862 130.738 338.152 131.13C337.447 131.521 336.676 131.717 335.839 131.717C334.496 131.717 333.409 131.286 332.578 130.425C331.753 129.564 331.341 128.323 331.341 126.703ZM333.012 126.703C333.012 127.932 333.28 128.853 333.816 129.468C334.352 130.076 335.026 130.38 335.839 130.38C336.646 130.38 337.318 130.073 337.854 129.458C338.39 128.844 338.658 127.908 338.658 126.649C338.658 125.463 338.387 124.566 337.845 123.957C337.309 123.343 336.64 123.036 335.839 123.036C335.026 123.036 334.352 123.34 333.816 123.948C333.28 124.556 333.012 125.475 333.012 126.703ZM347.637 131.5V118.257H357.212V119.82H349.389V123.876H356.715V125.43H349.389V129.937H357.519V131.5H347.637ZM358.648 131.5L362.153 126.514L358.91 121.907H360.943L362.415 124.156C362.692 124.584 362.915 124.942 363.083 125.231C363.348 124.833 363.592 124.481 363.815 124.174L365.432 121.907H367.374L364.059 126.423L367.627 131.5H365.631L363.662 128.519L363.138 127.715L360.617 131.5H358.648ZM375.242 127.986L376.841 128.194C376.666 129.296 376.218 130.16 375.495 130.786C374.778 131.407 373.896 131.717 372.848 131.717C371.536 131.717 370.479 131.289 369.678 130.434C368.883 129.573 368.485 128.341 368.485 126.74C368.485 125.704 368.657 124.797 369 124.021C369.344 123.244 369.864 122.663 370.563 122.277C371.268 121.886 372.032 121.69 372.857 121.69C373.899 121.69 374.751 121.955 375.414 122.485C376.076 123.009 376.501 123.756 376.688 124.725L375.107 124.969C374.956 124.325 374.688 123.84 374.303 123.515C373.923 123.189 373.463 123.027 372.921 123.027C372.102 123.027 371.436 123.322 370.924 123.912C370.412 124.496 370.156 125.424 370.156 126.694C370.156 127.983 370.403 128.92 370.897 129.504C371.391 130.088 372.035 130.38 372.83 130.38C373.469 130.38 374.002 130.184 374.429 129.793C374.857 129.401 375.128 128.799 375.242 127.986ZM384.799 128.411L386.479 128.618C386.215 129.6 385.724 130.362 385.007 130.904C384.29 131.446 383.375 131.717 382.261 131.717C380.858 131.717 379.744 131.286 378.919 130.425C378.1 129.558 377.69 128.344 377.69 126.785C377.69 125.171 378.106 123.918 378.937 123.027C379.768 122.136 380.846 121.69 382.171 121.69C383.453 121.69 384.501 122.127 385.314 123C386.127 123.873 386.534 125.101 386.534 126.685C386.534 126.782 386.531 126.926 386.525 127.119H379.37C379.431 128.173 379.729 128.98 380.265 129.54C380.801 130.1 381.469 130.38 382.27 130.38C382.866 130.38 383.375 130.223 383.797 129.91C384.218 129.597 384.552 129.097 384.799 128.411ZM379.461 125.782H384.817C384.745 124.975 384.54 124.37 384.203 123.966C383.685 123.34 383.014 123.027 382.189 123.027C381.442 123.027 380.813 123.277 380.301 123.777C379.795 124.276 379.515 124.945 379.461 125.782ZM388.494 131.5V118.257H390.12V131.5H388.494ZM399.216 128.411L400.896 128.618C400.632 129.6 400.141 130.362 399.424 130.904C398.707 131.446 397.792 131.717 396.678 131.717C395.275 131.717 394.161 131.286 393.336 130.425C392.517 129.558 392.107 128.344 392.107 126.785C392.107 125.171 392.523 123.918 393.354 123.027C394.185 122.136 395.263 121.69 396.588 121.69C397.87 121.69 398.918 122.127 399.731 123C400.544 123.873 400.951 125.101 400.951 126.685C400.951 126.782 400.948 126.926 400.942 127.119H393.787C393.848 128.173 394.146 128.98 394.682 129.54C395.218 130.1 395.886 130.38 396.687 130.38C397.283 130.38 397.792 130.223 398.214 129.91C398.635 129.597 398.969 129.097 399.216 128.411ZM393.878 125.782H399.234C399.162 124.975 398.957 124.37 398.62 123.966C398.102 123.34 397.431 123.027 396.606 123.027C395.859 123.027 395.23 123.277 394.718 123.777C394.212 124.276 393.932 124.945 393.878 125.782ZM396.552 119.179L395.531 120.714H393.67L395.621 118.185H397.355L399.388 120.714H397.545L396.552 119.179ZM402.947 131.5V121.907H404.41V123.271C405.115 122.217 406.133 121.69 407.464 121.69C408.042 121.69 408.572 121.795 409.053 122.006C409.541 122.211 409.906 122.482 410.146 122.819C410.387 123.156 410.556 123.557 410.652 124.021C410.713 124.322 410.743 124.849 410.743 125.601V131.5H409.117V125.665C409.117 125.002 409.053 124.508 408.927 124.183C408.801 123.852 408.575 123.59 408.25 123.397C407.93 123.198 407.554 123.099 407.12 123.099C406.428 123.099 405.829 123.319 405.323 123.759C404.823 124.198 404.573 125.032 404.573 126.261V131.5H402.947ZM419.505 127.986L421.104 128.194C420.929 129.296 420.48 130.16 419.758 130.786C419.041 131.407 418.159 131.717 417.111 131.717C415.798 131.717 414.741 131.289 413.94 130.434C413.146 129.573 412.748 128.341 412.748 126.74C412.748 125.704 412.92 124.797 413.263 124.021C413.606 123.244 414.127 122.663 414.826 122.277C415.53 121.886 416.295 121.69 417.12 121.69C418.162 121.69 419.014 121.955 419.677 122.485C420.339 123.009 420.764 123.756 420.95 124.725L419.369 124.969C419.219 124.325 418.951 123.84 418.565 123.515C418.186 123.189 417.725 123.027 417.183 123.027C416.364 123.027 415.699 123.322 415.187 123.912C414.675 124.496 414.419 125.424 414.419 126.694C414.419 127.983 414.666 128.92 415.16 129.504C415.654 130.088 416.298 130.38 417.093 130.38C417.731 130.38 418.264 130.184 418.692 129.793C419.119 129.401 419.39 128.799 419.505 127.986ZM422.504 120.127V118.257H424.13V120.127H422.504ZM422.504 131.5V121.907H424.13V131.5H422.504ZM432.874 130.317C432.272 130.829 431.691 131.19 431.131 131.401C430.577 131.611 429.98 131.717 429.342 131.717C428.288 131.717 427.478 131.461 426.912 130.949C426.346 130.431 426.063 129.772 426.063 128.971C426.063 128.501 426.168 128.073 426.379 127.688C426.596 127.297 426.876 126.983 427.219 126.749C427.569 126.514 427.96 126.336 428.394 126.216C428.713 126.131 429.194 126.05 429.839 125.972C431.152 125.815 432.118 125.628 432.739 125.412C432.745 125.189 432.748 125.047 432.748 124.987C432.748 124.325 432.594 123.858 432.287 123.587C431.871 123.22 431.254 123.036 430.435 123.036C429.67 123.036 429.104 123.171 428.737 123.442C428.375 123.707 428.108 124.18 427.933 124.861L426.343 124.644C426.488 123.963 426.725 123.415 427.057 123C427.388 122.578 427.867 122.256 428.493 122.033C429.119 121.804 429.845 121.69 430.67 121.69C431.489 121.69 432.154 121.786 432.666 121.979C433.178 122.172 433.555 122.416 433.795 122.711C434.036 123 434.205 123.367 434.301 123.813C434.355 124.09 434.383 124.59 434.383 125.312V127.48C434.383 128.992 434.416 129.949 434.482 130.353C434.554 130.75 434.693 131.133 434.897 131.5H433.199C433.031 131.163 432.922 130.768 432.874 130.317ZM432.739 126.685C432.148 126.926 431.263 127.131 430.083 127.3C429.414 127.396 428.942 127.504 428.665 127.625C428.388 127.745 428.174 127.923 428.023 128.158C427.873 128.387 427.797 128.642 427.797 128.926C427.797 129.359 427.96 129.72 428.285 130.01C428.616 130.299 429.098 130.443 429.73 130.443C430.357 130.443 430.914 130.308 431.402 130.037C431.889 129.76 432.248 129.383 432.477 128.907C432.651 128.54 432.739 127.998 432.739 127.281V126.685Z" fill="#FCFCFC"/>
<defs>
<clipPath id="clip0_184_32696">
<rect x="28.5" y="28.5" width="119" height="119" rx="20" fill="white"/>
</clipPath>
</defs>
</svg>
